<?xml version="1.0" encoding="UTF-8"?>
<svg width="512px" height="512px" viewBox="0 0 512 512" version="1.1" xmlns="http://www.w3.org/2000/svg" xmlns:xlink="http://www.w3.org/1999/xlink">
    <!-- Generator: Sketch 60.1 (88133) - https://sketch.com -->
    <title>Artboard Copy 2</title>
    <desc>Created with Sketch.</desc>
    <g id="Artboard-Copy-2" stroke="none" stroke-width="1" fill="none" fill-rule="evenodd">
        <circle id="Oval" fill="#000000" cx="256" cy="256" r="256"></circle>
        <g id="Group" transform="translate(94.000000, 205.989137)" fill="#FFFFFF">
            <path d="M257.862601,42.756591 C254.710289,47.9263826 247.943326,49.5655849 242.773534,46.3922575 C201.453029,21.1527462 149.435678,15.4365539 88.1757489,29.432819 C82.2725193,30.7778055 76.3882036,27.0790928 75.0432172,21.1737617 C73.6919261,15.2684306 77.375928,9.38411487 83.2938684,8.03912842 C150.333036,-7.28320933 207.837512,-0.682268048 254.226935,27.6675243 C259.396726,30.8408517 261.035928,37.5867994 257.862601,42.756591 L257.862601,42.756591 Z" id="Path"></path>
            <path d="M84.6381796,7.53748368 C81.285665,8.77689817 77.9647566,11.7219186 76.3889619,14.8475458 L75.0536,17.4956937 C75.0536,17.4956937 74.4226048,72.01506 73.4507142,74.1259026 C71.9731245,77.3395757 68.6917238,80.3839298 65.6665591,81.3535628 C64.2329923,81.8152391 58.5675812,83.0862598 53.0681027,84.1789312 C27.6115676,89.2449533 18.1579279,92.8943404 10.1604309,100.746223 C5.61816873,105.203826 2.2543662,111.290277 0.80048108,117.675857 C-0.590191645,123.780369 -0.125129013,132.91456 1.85590234,138.46935 C3.9317523,144.278117 7.27297897,149.239162 11.6414071,153.142527 C15.6125002,156.202684 20.3003766,158.480588 25.5707102,159.832882 C37.2232382,162.816281 59.0394166,159.497631 70.1918894,153.04658 C74.8560613,150.347636 80.855595,144.690127 83.9755783,140.036114 C85.2127352,138.192795 87.0684705,134.48584 88.1080887,131.791411 C91.7405439,122.356961 91.854552,34.3214791 92.3184858,32.2049927 C93.1063832,28.613174 95.5615075,27.9842156 98.9444995,27.0913404 C101.993369,26.2910264 86.8054618,6.73604079 84.6381796,7.53748368 Z" id="Path"></path>
            <path d="M242.187461,22.9821821 C242.187461,22.9821821 241.556466,107.501548 240.584575,109.612391 C239.106986,112.826064 235.825585,115.870418 232.80042,116.840051 C231.366853,117.301727 225.701442,118.572748 220.201964,119.66542 C194.745429,124.731442 185.291789,128.380829 177.294292,136.232711 C172.75203,140.690314 169.388227,146.776765 167.934342,153.162346 C166.54367,159.266857 167.008732,168.401049 168.989764,173.955838 C171.065613,179.764606 174.40684,184.72565 178.775268,188.629015 C182.746361,191.689173 187.434238,193.967077 192.704571,195.31937 C204.357099,198.30277 226.173278,194.984119 237.325751,188.533068 C241.989922,185.834125 247.989456,180.176615 251.109439,175.522602 C252.346596,173.679284 254.202332,169.972328 255.24195,167.2779 C258.874405,157.84345 258.988413,39.8079675 259.452347,37.691481 C259.977612,35.2969352 254.22265,30.3938356 242.187461,22.9821821 Z" id="Path-Copy"></path>
        </g>
        <path d="M373.4034,200.820078 C369.431486,207.282318 360.98329,209.320813 354.531559,205.3489 C307.225863,176.265669 235.115676,167.844793 179.162139,184.82945 C171.905516,187.021358 164.241195,182.931758 162.03878,175.687745 C159.853177,168.431123 163.944878,160.781513 171.188891,158.574894 C235.103067,139.181871 314.560243,148.575761 368.885086,181.958745 C375.336818,185.930658 377.375313,194.378854 373.4034,200.82218 L373.4034,200.820078 Z" id="Path" fill="#FFFFFF"></path>
        <path d="M375.252756,150.921081 C318.532156,117.231272 224.950521,114.1336 170.795903,130.569755 C162.099725,133.207189 152.90338,128.297989 150.268047,119.601811 C147.632714,110.90143 152.537712,101.711389 161.240194,99.0676505 C223.405888,80.1958095 326.749182,83.8419837 392.052477,122.609116 C399.891226,127.251421 402.455107,137.35353 397.8107,145.164959 C393.18731,152.986896 383.05788,155.565487 375.261162,150.921081 L375.252756,150.921081 Z" id="Path" fill="#FFFFFF"></path>
    </g>
</svg>