<svg xmlns="http://www.w3.org/2000/svg" xmlns:xlink="http://www.w3.org/1999/xlink" x="0px" y="0px" width="48px" height="48px" viewBox="0 0 48 48"><g transform="translate(0, 0)"><path fill="#AAAAAA" d="M24,2C11.86914,2,2,11.86914,2,24s9.86914,22,22,22s22-9.86914,22-22S36.13086,2,24,2z M24,6
	c4.24335,0,8.14148,1.48456,11.22192,3.94995L9.94995,35.22192C7.48456,32.14148,6,28.24335,6,24C6,14.07471,14.07471,6,24,6z
	 M24,42c-4.24335,0-8.14148-1.48456-11.22192-3.94995l25.27197-25.27197C40.51544,15.85852,42,19.75665,42,24
	C42,33.92529,33.92529,42,24,42z"></path></g></svg>
