<?xml version="1.0" encoding="UTF-8"?>
<svg width="18px" height="23px" viewBox="0 0 18 23" version="1.1" xmlns="http://www.w3.org/2000/svg" xmlns:xlink="http://www.w3.org/1999/xlink">
    <defs></defs>
    <g id="Page-1" stroke="none" stroke-width="1" fill="none" fill-rule="evenodd">
        <path d="M17.2577865,3.83749695e-07 C17.6065832,-0.00031632982 17.8627598,0.195420862 17.9624066,0.538728294 C17.9971198,0.658327688 18.0056322,2.84893036 17.9967095,9.2626911 L17.9849048,17.8269485 L17.8949293,18.1463613 C17.5895296,19.2325823 16.8436965,20.0015154 15.7872538,20.3187055 C15.0406793,20.5428652 13.9496932,20.6260673 13.4138714,20.4997807 C12.936931,20.3873747 12.5912511,20.1880568 12.2129799,19.8075326 C11.6627664,19.2540541 11.4187976,18.6886124 11.4175408,17.9650039 C11.416965,17.560257 11.4886848,17.2555382 11.6804376,16.8490277 C11.9515645,16.2742588 12.3024472,15.9282247 12.9341885,15.6124267 C13.440042,15.3595612 13.8922428,15.228472 15.2133803,14.9525137 C16.0816707,14.7711477 16.2931245,14.6933499 16.4623518,14.4922324 C16.6950643,14.215671 16.6899378,14.318397 16.6780107,9.93610189 C16.6676743,6.12873187 16.663475,5.91952845 16.5942212,5.81382011 C16.4915225,5.65710736 16.2774817,5.57622749 16.0512763,5.60856352 C15.8109886,5.64289656 7.26770625,7.37149274 7.0545753,7.42887936 C6.81772681,7.49265914 6.64627536,7.68099704 6.59120175,7.93780294 C6.55871846,8.08932491 6.54586852,9.76929893 6.54565114,13.905987 C6.54536322,20.2594066 6.55054581,20.1153192 6.29653145,20.7905137 C6.22404636,20.9831273 6.09409979,21.2486557 6.00776699,21.3804157 C5.78954342,21.71344 5.37006234,22.1186794 5.04390495,22.3116616 C4.26372052,22.7732846 2.73821721,23.0107319 1.92344405,22.7972483 C1.06016952,22.5710586 0.418922008,21.9833448 0.129839825,21.1540706 C-0.00867802134,20.7567174 -0.0412802283,20.1028709 0.0558912379,19.6661028 C0.157589549,19.2090059 0.392896646,18.7735506 0.710462607,18.4545265 C1.26980641,17.8926032 1.93095146,17.6313937 3.71114373,17.2688186 C4.09543303,17.19055 4.49179762,17.0995568 4.59205949,17.066656 C4.80359608,16.9972338 5.03302051,16.7792082 5.13641094,16.5492972 C5.20436946,16.3981715 5.20946337,16.0291484 5.22835461,9.68192053 L5.24831793,2.97425118 L5.34166753,2.78474043 C5.45188644,2.56092889 5.68424076,2.35017127 5.918635,2.26147693 C6.07009708,2.2041666 14.9425283,0.395647037 16.4477311,0.115281388 C16.7881046,0.0518770587 17.1526045,9.82770348e-05 17.2577909,3.83749693e-07 L17.2577865,3.83749695e-07 Z" id="circle1107-path" fill="#FFFFFF"></path>
    </g>
</svg>
