<svg xmlns="http://www.w3.org/2000/svg" xmlns:xlink="http://www.w3.org/1999/xlink" x="0px" y="0px" width="48px" height="48px" viewBox="0 0 48 48"><g transform="translate(0, 0)"><path fill="#43A6DD" d="M45.956,27.581l-3-14l-3.912,0.838l1.822,8.502C35.995,19.755,30.097,18,24,18
	c-8.152,0-15.958,3.129-21.414,8.586l-0.707,0.707c-0.391,0.39-0.391,1.024,0,1.414l1.414,1.414c0.391,0.391,1.024,0.391,1.414,0
	l0.707-0.707C10.126,24.702,16.9,22,24,22c5.714,0,11.21,1.758,15.596,4.898l-10.015,2.146l0.838,3.911l14-3
	C45.499,29.724,46.187,28.661,45.956,27.581z"></path></g></svg>